<svg width="17" height="17" viewBox="0 0 17 17" fill="none" xmlns="http://www.w3.org/2000/svg">
<g clip-path="url(#clip0_239_376)">
<path d="M6.8 3.06006V4.76006H3.4V6.46006H1.7V8.16006H0.3825C0.220469 8.16271 0.083672 8.27826 0.053125 8.43631C0.053125 8.43631 0 8.72717 0 9.09506C0 9.32881 0.0239062 9.58248 0.06375 9.83881C0.043828 9.84412 0.0172656 9.85607 0 9.86006H0.06375C0.162031 10.475 0.387812 11.1297 0.765 11.7513C0.766328 11.754 0.763672 11.7593 0.765 11.7619C0.767656 11.7686 0.771641 11.7765 0.775625 11.7832C0.792891 11.8642 0.838047 11.9359 0.903125 11.9851C0.909766 11.989 0.917734 11.993 0.924375 11.9957C1.0293 12.1471 1.13953 12.2985 1.26437 12.4419C2.17414 13.4912 3.65102 14.2801 5.78 14.2801C9.2557 14.2801 12.1948 12.7992 13.855 9.86006H16.9469C16.5777 9.76709 15.7848 9.64225 15.9163 9.15881C15.4766 9.66748 14.6399 9.73123 13.9931 9.61568C14.1166 9.38193 14.2362 9.1442 14.3438 8.89318C15.3266 8.86795 16.0318 8.55186 16.4263 8.17068C16.8579 7.75365 16.9894 7.28881 16.9894 7.28881C17.0226 7.15865 16.9774 7.02186 16.8725 6.93818C16.8725 6.93818 16.0132 6.31131 14.7262 6.52381C14.3597 5.32186 13.4088 4.73881 13.4088 4.73881C13.3384 4.69764 13.256 4.6817 13.175 4.69631C13.1205 4.70826 13.0688 4.7335 13.0262 4.77068C13.0262 4.77068 12.7991 4.96459 12.6119 5.31256C12.4246 5.66053 12.252 6.19045 12.3144 6.87443C12.3436 7.19451 12.4445 7.49865 12.5906 7.78818C12.5083 7.83865 12.4605 7.88115 12.325 7.93693C12.0434 8.05381 11.633 8.16006 11.05 8.16006H10.88V6.46006H9.18V3.06006H6.8ZM7.48 3.74006H8.5V4.76006H7.48V3.74006ZM4.08 5.44006H5.1V6.46006H4.08V5.44006ZM5.78 5.44006H6.8V6.46006H5.78V5.44006ZM7.48 5.44006H8.5V6.46006H7.48V5.44006ZM13.2919 5.51443C13.5442 5.7017 14.0011 6.0935 14.1631 6.94881C14.1804 7.04311 14.2362 7.12412 14.3172 7.17459C14.3982 7.22506 14.4965 7.23967 14.5881 7.21443C15.4554 6.9767 15.9242 7.17193 16.1819 7.32068C16.1327 7.42826 16.1407 7.49467 15.9481 7.68193C15.6387 7.98076 15.1141 8.28225 14.1313 8.24506C13.9878 8.23975 13.8563 8.32475 13.8019 8.45756C13.6664 8.79623 13.5097 9.10967 13.345 9.41381C13.2945 9.38459 13.252 9.35006 13.2175 9.31818C12.762 9.97826 10.119 9.72592 9.93437 9.21193C9.36461 9.88131 7.59422 9.88131 7.02313 9.21193C6.83852 9.72592 4.18492 9.97826 3.72938 9.31818C3.32164 9.70068 1.71195 9.93576 1.04125 9.15881C1.105 9.39256 0.940313 9.54396 0.7225 9.64756C0.694609 9.45365 0.68 9.26904 0.68 9.09506C0.68 8.94897 0.690625 8.93568 0.70125 8.84006H11.05C11.7194 8.84006 12.2214 8.71256 12.58 8.56381C12.9386 8.41506 13.1936 8.23443 13.2281 8.21318C13.3105 8.16139 13.3663 8.07771 13.3822 7.98209C13.3981 7.88779 13.3729 7.78951 13.3131 7.71381C13.1245 7.46811 13.0262 7.15998 12.9944 6.81068C12.9452 6.26217 13.0741 5.87834 13.2069 5.63131C13.252 5.54764 13.2547 5.5649 13.2919 5.51443ZM2.38 7.14006H3.4V8.16006H2.38V7.14006ZM4.08 7.14006H5.1V8.16006H4.08V7.14006ZM5.78 7.14006H6.8V8.16006H5.78V7.14006ZM7.48 7.14006H8.5V8.16006H7.48V7.14006ZM9.18 7.14006H10.2V8.16006H9.18V7.14006ZM0.765 9.86006H13.09C11.5295 12.3808 8.93828 13.6001 5.78 13.6001C3.92062 13.6001 2.71469 12.9692 1.92313 12.1338C3.43187 12.2055 4.60063 11.8044 4.60063 11.8044C4.78789 11.7805 4.92203 11.6092 4.89813 11.4219C4.87422 11.2347 4.70289 11.1005 4.51562 11.1244C4.49703 11.1271 4.47977 11.1297 4.4625 11.1351C4.43328 11.139 4.40539 11.1457 4.3775 11.1563C4.3775 11.1563 2.98695 11.6304 1.36 11.4007C1.05453 10.8973 0.861953 10.3581 0.765 9.86006ZM5.44 10.5401C5.25273 10.5401 5.1 10.6928 5.1 10.8801C5.1 11.0673 5.25273 11.2201 5.44 11.2201C5.62727 11.2201 5.78 11.0673 5.78 10.8801C5.78 10.8336 5.77602 10.7924 5.75875 10.7526C5.73484 10.7951 5.68305 10.8269 5.63125 10.8269C5.55422 10.8269 5.49312 10.7552 5.49312 10.6782C5.49312 10.6264 5.52633 10.5852 5.5675 10.5613C5.52898 10.5467 5.48383 10.5401 5.44 10.5401Z" fill="#00245A"/>
</g>
<defs>
<clipPath id="clip0_239_376">
<rect width="17" height="17" fill="white"/>
</clipPath>
</defs>
</svg>
