<svg width="17" height="17" viewBox="0 0 17 17" fill="none" xmlns="http://www.w3.org/2000/svg">
<path d="M7.13313 14.523C7.13312 14.4191 7.11026 14.3165 7.06617 14.2224C7.02208 14.1283 6.95784 14.0451 6.878 13.9787C6.79817 13.9122 6.70469 13.8641 6.6042 13.8378C6.5037 13.8115 6.39865 13.8076 6.29649 13.8264C5.36922 13.9966 4.19847 14.0221 3.88718 13.1478C3.61575 12.4706 3.16615 11.8795 2.58604 11.4372C2.54465 11.4147 2.5052 11.3887 2.4681 11.3597C2.41733 11.2258 2.32715 11.1104 2.20946 11.0287C2.09177 10.9471 1.9521 10.9031 1.80888 10.9025H1.80542C1.61814 10.9024 1.43845 10.9765 1.3057 11.1086C1.17295 11.2407 1.09794 11.4201 1.09709 11.6073C1.09432 12.1849 1.67154 12.555 1.90572 12.6802C2.18186 12.9577 2.40379 13.2842 2.5601 13.6431C2.81812 14.368 3.56795 15.4679 5.72339 15.3261C5.7241 15.351 5.72477 15.3745 5.72512 15.396L5.72823 15.5855C5.72823 15.7734 5.80285 15.9535 5.93569 16.0864C6.06853 16.2192 6.2487 16.2938 6.43656 16.2938C6.62442 16.2938 6.80459 16.2192 6.93743 16.0864C7.07027 15.9535 7.14489 15.7734 7.14489 15.5855L7.14144 15.36C7.13798 15.2258 7.13313 15.0314 7.13313 14.523ZM14.6889 3.80871C14.7114 3.72016 14.7336 3.62194 14.7529 3.51126C14.8675 2.72189 14.7676 1.91623 14.4638 1.17872C14.4254 1.08257 14.3665 0.995975 14.2912 0.924997C14.2158 0.854019 14.1259 0.800379 14.0276 0.767837C13.7755 0.682752 12.8444 0.515352 11.0639 1.65325C9.58387 1.30496 8.0432 1.30496 6.56316 1.65325C4.7899 0.532019 3.86367 0.684169 3.61395 0.764409C3.51327 0.795633 3.42085 0.848989 3.34347 0.920567C3.26609 0.992145 3.20571 1.08013 3.16674 1.17808C2.85671 1.92974 2.75792 2.75183 2.88106 3.55555C2.89836 3.64617 2.91703 3.72987 2.9364 3.80665C2.3496 4.58826 2.03704 5.54162 2.04718 6.51893C2.04527 6.73698 2.05531 6.95497 2.07727 7.17192C2.31385 10.4321 4.43885 11.4109 5.91949 11.747C5.88871 11.8356 5.8607 11.9303 5.83579 12.0307C5.79141 12.2129 5.82111 12.4053 5.91838 12.5657C6.01566 12.7261 6.17256 12.8414 6.3547 12.8862C6.53683 12.9311 6.72932 12.9019 6.88997 12.8051C7.05061 12.7082 7.16629 12.5516 7.21165 12.3696C7.25672 12.1336 7.37224 11.9168 7.54299 11.7477C7.64623 11.6573 7.72098 11.5389 7.75815 11.4068C7.79531 11.2747 7.79329 11.1347 7.75232 11.0037C7.71136 10.8727 7.63321 10.7565 7.5274 10.6691C7.42158 10.5818 7.29266 10.527 7.15631 10.5116C4.70966 10.2321 3.6475 9.23537 3.48771 7.04189C3.47001 6.86815 3.46204 6.69356 3.46385 6.51894C3.45248 5.8224 3.6826 5.14341 4.11511 4.59731C4.15857 4.54037 4.20486 4.48566 4.2538 4.43336C4.34052 4.33632 4.39883 4.21727 4.42232 4.08926C4.44582 3.96125 4.43358 3.82925 4.38697 3.70774C4.33918 3.57991 4.30239 3.44823 4.27699 3.31414C4.21928 2.93286 4.23821 2.54389 4.33266 2.17001C4.9483 2.34389 5.5277 2.62692 6.04329 3.00562C6.12855 3.06241 6.22502 3.1002 6.32617 3.11643C6.42732 3.13267 6.53078 3.12696 6.62953 3.0997C8.06115 2.71118 9.57047 2.71142 11.002 3.10041C11.1013 3.12764 11.2053 3.13302 11.3068 3.11618C11.4084 3.09934 11.5051 3.06069 11.5903 3.00288C12.1035 2.6226 12.6804 2.33704 13.294 2.15966C13.3881 2.52456 13.4091 2.90444 13.3559 3.27749C13.3303 3.4245 13.2902 3.56861 13.2363 3.70775C13.1896 3.82926 13.1774 3.96127 13.2009 4.08927C13.2244 4.21728 13.2827 4.33634 13.3694 4.43338C13.4241 4.49494 13.4787 4.56134 13.5278 4.6236C13.9573 5.16046 14.1835 5.83164 14.1667 6.51893C14.1679 6.70282 14.1591 6.88664 14.14 7.06955C13.984 9.23397 12.9177 10.2315 10.4597 10.5116C10.3233 10.5271 10.1944 10.582 10.0886 10.6694C9.98275 10.7569 9.90463 10.8732 9.86371 11.0042C9.82278 11.1352 9.82081 11.2753 9.85802 11.4074C9.89524 11.5396 9.97005 11.658 10.0733 11.7484C10.2495 11.922 10.3652 12.1475 10.4036 12.3917C10.4515 12.5814 10.4735 12.7766 10.469 12.9721V14.6253C10.4621 15.0839 10.4621 15.4277 10.4621 15.5855C10.4621 15.7733 10.5367 15.9535 10.6695 16.0863C10.8024 16.2192 10.9826 16.2938 11.1704 16.2938C11.3583 16.2938 11.5384 16.2192 11.6713 16.0863C11.8041 15.9535 11.8787 15.7733 11.8787 15.5855C11.8787 15.4319 11.8787 15.095 11.8857 14.6364V12.9721C11.8914 12.6589 11.8545 12.3464 11.776 12.0431C11.7536 11.9435 11.7261 11.8452 11.6937 11.7484C12.7713 11.5694 13.7503 11.0139 14.4566 10.1806C15.163 9.34737 15.5507 8.29054 15.5508 7.19822C15.5741 6.97256 15.585 6.74578 15.5833 6.51893C15.5991 5.54056 15.2839 4.58555 14.6889 3.80872L14.6889 3.80871Z" fill="#00245A"/>
</svg>
