<svg width="17" height="17" viewBox="0 0 17 17" fill="none" xmlns="http://www.w3.org/2000/svg">
<path d="M10.2552 10.542C9.72262 10.5939 9.18608 10.4962 8.70594 10.2599C8.59718 10.1729 8.50741 10.0645 8.44217 9.94143C8.37693 9.81836 8.33762 9.68322 8.32665 9.54436C8.32642 9.52358 8.32208 9.50305 8.31387 9.48396C8.30567 9.46488 8.29375 9.4476 8.27882 9.43315C8.26389 9.41869 8.24625 9.40734 8.2269 9.39976C8.20756 9.39217 8.1869 9.38849 8.16612 9.38894C7.94187 9.38621 7.71766 9.38681 7.49345 9.38864C7.45427 9.38464 7.41509 9.39625 7.38441 9.42095C7.35373 9.44565 7.33402 9.48145 7.32956 9.52058C7.31677 9.76421 7.35796 10.0076 7.45017 10.2335C7.54238 10.4594 7.68333 10.6621 7.86297 10.8271C8.31644 11.181 8.86706 11.3881 9.44133 11.4209C10.0397 11.4903 10.6453 11.4646 11.2356 11.3447C11.6889 11.2601 12.1045 11.0362 12.4243 10.704C12.6012 10.486 12.7197 10.2266 12.7688 9.95022C12.8178 9.67382 12.7958 9.38948 12.7048 9.12392C12.6284 8.93671 12.5101 8.7695 12.3591 8.6351C12.208 8.50071 12.0281 8.40271 11.8333 8.34862C10.9261 8.03029 9.94609 8.05437 9.02122 7.81248C8.86066 7.76194 8.66446 7.70708 8.59292 7.53709C8.55155 7.41747 8.54873 7.28789 8.58483 7.16657C8.62094 7.04526 8.69417 6.93832 8.79421 6.86078C9.0846 6.69483 9.41527 6.6125 9.74957 6.62292C10.2033 6.58021 10.6607 6.64565 11.0842 6.81388C11.2114 6.8887 11.3208 6.99032 11.4048 7.11169C11.4888 7.23305 11.5454 7.37125 11.5707 7.51668C11.5719 7.5596 11.5891 7.60051 11.6189 7.63139C11.6487 7.66228 11.689 7.68089 11.7319 7.6836C11.9545 7.68814 12.1773 7.68481 12.3999 7.68511C12.4385 7.68973 12.4775 7.68026 12.5097 7.65843C12.5419 7.63661 12.5651 7.60389 12.5751 7.56631C12.5771 7.26599 12.5006 6.97035 12.3531 6.7087C12.2057 6.44705 11.9925 6.22845 11.7345 6.07456C11.0227 5.74603 10.2325 5.62512 9.45499 5.72576V5.7257C8.8853 5.74905 8.34101 5.96775 7.91355 6.34505C7.7173 6.55657 7.58441 6.81895 7.53001 7.10231C7.47561 7.38567 7.50189 7.67861 7.60586 7.94776C7.68679 8.12806 7.80585 8.28866 7.95484 8.4185C8.10383 8.54834 8.27921 8.64433 8.46888 8.69984C9.37306 9.02643 10.3641 8.92163 11.277 9.21043C11.4549 9.27078 11.6621 9.36309 11.7166 9.56109C11.7459 9.67976 11.7437 9.80403 11.7102 9.92158C11.6767 10.0391 11.613 10.1459 11.5256 10.2313C11.1459 10.4672 10.7009 10.576 10.2552 10.542ZM14.377 4.55987C12.6116 3.56159 10.8459 2.56422 9.07973 1.56774C8.90252 1.46865 8.70288 1.41663 8.49984 1.41663C8.29681 1.41663 8.09717 1.46865 7.91996 1.56774C6.16068 2.5612 4.40131 3.55462 2.64185 4.54798C2.47068 4.64128 2.3276 4.77867 2.22743 4.94591C2.12727 5.11315 2.07367 5.30414 2.0722 5.49907V11.5017C2.07502 11.7001 2.1315 11.8942 2.23566 12.0631C2.33981 12.2321 2.48776 12.3697 2.6638 12.4614C3.16921 12.7365 3.66025 13.0397 4.17481 13.2965C4.4718 13.4552 4.80167 13.5427 5.1383 13.552C5.47494 13.5612 5.80912 13.492 6.11438 13.3498C6.3428 13.2067 6.52866 13.005 6.6526 12.7656C6.77653 12.5263 6.83401 12.2581 6.81904 11.989C6.82297 10.008 6.81965 8.02689 6.82055 6.04585C6.824 6.0242 6.82283 6.00205 6.81713 5.98088C6.81143 5.9597 6.80131 5.93997 6.78745 5.92297C6.77359 5.90598 6.75629 5.8921 6.7367 5.88225C6.7171 5.87241 6.69565 5.86681 6.67374 5.86583C6.44892 5.8622 6.22376 5.86371 5.99895 5.86523C5.97813 5.86336 5.95716 5.86591 5.9374 5.87272C5.91764 5.87953 5.89954 5.89043 5.88429 5.90473C5.86904 5.91902 5.85698 5.93637 5.84891 5.95565C5.84084 5.97493 5.83693 5.99569 5.83745 6.01659C5.83443 7.98487 5.83806 9.95371 5.83564 11.9223C5.83615 12.0582 5.7951 12.191 5.718 12.3028C5.6409 12.4147 5.53142 12.5004 5.40426 12.5483C5.25783 12.5915 5.10392 12.6034 4.95258 12.5832C4.80124 12.5629 4.65587 12.511 4.52598 12.4307C4.05776 12.1663 3.58955 11.9019 3.12135 11.6375C3.09033 11.6228 3.06456 11.5989 3.0475 11.5691C3.03045 11.5393 3.02294 11.505 3.02598 11.4708C3.02598 9.49038 3.02598 7.51006 3.02598 5.52983C3.02273 5.4913 3.03173 5.45274 3.0517 5.41964C3.07167 5.38654 3.10159 5.3606 3.13719 5.34552C4.8907 4.35792 6.64387 3.36929 8.39671 2.37962C8.42715 2.35883 8.46317 2.34773 8.50004 2.34779C8.53691 2.34784 8.5729 2.35904 8.60328 2.37993C10.3567 3.36783 12.1101 4.35608 13.8634 5.34468C13.8988 5.36018 13.9285 5.38635 13.9483 5.41955C13.9682 5.45275 13.9771 5.49131 13.974 5.52985C13.9737 7.50992 13.9735 9.49015 13.9734 11.4705C13.9765 11.5049 13.9691 11.5393 13.9523 11.5695C13.9355 11.5996 13.91 11.6239 13.8792 11.6393C12.1526 12.6156 10.425 13.5906 8.69649 14.5641C8.61391 14.6101 8.51616 14.6841 8.41958 14.6284C7.96688 14.3721 7.51972 14.1059 7.06854 13.8473C7.04548 13.8296 7.01767 13.8193 6.98869 13.8175C6.9597 13.8158 6.93086 13.8228 6.90585 13.8375C6.70712 13.9539 6.49794 14.0516 6.28104 14.1291C6.18325 14.1687 6.06293 14.18 5.99562 14.2707C6.08142 14.364 6.18537 14.4389 6.3011 14.4907C6.82877 14.7962 7.35671 15.1015 7.88494 15.4064C8.05964 15.5162 8.26056 15.577 8.46677 15.5828C8.67299 15.5885 8.87698 15.5389 9.0575 15.439C10.8171 14.4469 12.5765 13.4543 14.3359 12.4613C14.5118 12.3694 14.6596 12.2317 14.7638 12.0628C14.868 11.8939 14.9246 11.7001 14.9278 11.5016V5.49907C14.9263 5.30799 14.8747 5.12064 14.778 4.95581C14.6813 4.79098 14.543 4.65444 14.377 4.55987H14.377Z" fill="#012E72"/>
</svg>
