<svg width="103" height="37" viewBox="0 0 103 37" fill="none" xmlns="http://www.w3.org/2000/svg">
<rect y="7" width="103" height="30" rx="6" fill="white"/>
<path d="M15.458 27.112C15.2153 27.112 14.968 27.0887 14.716 27.042C14.4733 26.9953 14.24 26.9113 14.016 26.79C13.8013 26.6687 13.61 26.5147 13.442 26.328C13.274 26.1413 13.134 25.936 13.022 25.712C12.9193 25.4787 12.8493 25.2407 12.812 24.998C12.7747 24.746 12.756 24.4987 12.756 24.256V19.454C12.756 19.2113 12.7747 18.9687 12.812 18.726C12.8493 18.474 12.9193 18.236 13.022 18.012C13.134 17.7787 13.274 17.5687 13.442 17.382C13.61 17.1953 13.8013 17.0413 14.016 16.92C14.24 16.7987 14.4733 16.7147 14.716 16.668C14.968 16.6213 15.2153 16.598 15.458 16.598C15.6913 16.598 15.9247 16.6167 16.158 16.654C16.3913 16.6913 16.6107 16.7613 16.816 16.864C17.0307 16.9667 17.222 17.102 17.39 17.27C17.5673 17.4287 17.712 17.6107 17.824 17.816C17.936 18.0213 18.02 18.2407 18.076 18.474C18.132 18.698 18.16 18.9267 18.16 19.16C18.16 19.1693 18.16 19.1787 18.16 19.188C18.16 19.188 18.16 19.1927 18.16 19.202H16.9C16.9 19.1927 16.9 19.188 16.9 19.188C16.9 18.992 16.8673 18.8007 16.802 18.614C16.746 18.4273 16.648 18.264 16.508 18.124C16.3773 17.9747 16.2187 17.872 16.032 17.816C15.8453 17.7507 15.654 17.718 15.458 17.718C15.2433 17.718 15.0333 17.7647 14.828 17.858C14.632 17.942 14.4687 18.0727 14.338 18.25C14.2167 18.418 14.1327 18.6093 14.086 18.824C14.0393 19.0293 14.016 19.2393 14.016 19.454V24.256C14.016 24.4707 14.0393 24.6853 14.086 24.9C14.1327 25.1053 14.2167 25.2967 14.338 25.474C14.4687 25.642 14.632 25.7727 14.828 25.866C15.0333 25.95 15.2433 25.992 15.458 25.992C15.654 25.992 15.8453 25.964 16.032 25.908C16.2187 25.8427 16.3773 25.74 16.508 25.6C16.648 25.4507 16.746 25.2827 16.802 25.096C16.8673 24.9093 16.9 24.718 16.9 24.522C16.9 24.5127 16.9 24.508 16.9 24.508H18.16C18.16 24.5173 18.16 24.5267 18.16 24.536C18.16 24.536 18.16 24.5407 18.16 24.55C18.16 24.7833 18.132 25.0167 18.076 25.25C18.02 25.474 17.936 25.6887 17.824 25.894C17.712 26.0993 17.5673 26.286 17.39 26.454C17.222 26.6127 17.0307 26.7433 16.816 26.846C16.6107 26.9487 16.3913 27.0187 16.158 27.056C15.9247 27.0933 15.6913 27.112 15.458 27.112ZM19.532 27V19.72H20.792V22.8H21.394L23.284 19.72H24.712L22.444 23.36L24.712 27H23.284L21.394 23.92H20.792V27H19.532ZM28.38 27.112C28.128 27.112 27.876 27.0887 27.624 27.042C27.372 26.9953 27.134 26.9113 26.91 26.79C26.6953 26.6593 26.4993 26.5007 26.322 26.314C26.154 26.118 26.0187 25.908 25.916 25.684C25.8133 25.4507 25.7387 25.208 25.692 24.956C25.6547 24.704 25.636 24.452 25.636 24.2V22.52C25.636 22.268 25.6547 22.016 25.692 21.764C25.7387 21.512 25.8133 21.274 25.916 21.05C26.0187 20.8167 26.154 20.6067 26.322 20.42C26.4993 20.224 26.7 20.0653 26.924 19.944C27.148 19.8133 27.3813 19.72 27.624 19.664C27.876 19.5987 28.128 19.566 28.38 19.566C28.632 19.566 28.8793 19.5987 29.122 19.664C29.374 19.72 29.612 19.8133 29.836 19.944C30.06 20.0653 30.256 20.224 30.424 20.42C30.6013 20.6067 30.7413 20.8167 30.844 21.05C30.9467 21.274 31.0167 21.512 31.054 21.764C31.1007 22.016 31.124 22.268 31.124 22.52V24.2C31.124 24.452 31.1007 24.704 31.054 24.956C31.0167 25.208 30.9467 25.4507 30.844 25.684C30.7413 25.908 30.6013 26.118 30.424 26.314C30.256 26.5007 30.06 26.6593 29.836 26.79C29.6213 26.9113 29.388 26.9953 29.136 27.042C28.884 27.0887 28.632 27.112 28.38 27.112ZM28.38 25.992C28.604 25.992 28.8187 25.95 29.024 25.866C29.2293 25.7727 29.3973 25.6373 29.528 25.46C29.6587 25.2733 29.7473 25.0727 29.794 24.858C29.8407 24.6433 29.864 24.424 29.864 24.2V22.52C29.864 22.296 29.8407 22.0767 29.794 21.862C29.7473 21.638 29.654 21.4373 29.514 21.26C29.3833 21.0827 29.2107 20.952 28.996 20.868C28.7907 20.7747 28.576 20.728 28.352 20.728C28.1373 20.728 27.9273 20.7747 27.722 20.868C27.5167 20.9613 27.3487 21.0967 27.218 21.274C27.0967 21.4513 27.0127 21.652 26.966 21.876C26.9193 22.0907 26.896 22.3053 26.896 22.52V24.2C26.896 24.424 26.9193 24.6433 26.966 24.858C27.0127 25.0727 27.1013 25.2733 27.232 25.46C27.3627 25.6373 27.5307 25.7727 27.736 25.866C27.9413 25.95 28.156 25.992 28.38 25.992ZM32.188 27V19.72H37.452V27H36.192V20.84H33.448V27H32.188ZM38.628 27V19.72H39.888V22.632C39.888 22.8933 39.8787 23.1547 39.86 23.416C39.8507 23.668 39.8367 23.9247 39.818 24.186C39.7993 24.438 39.776 24.69 39.748 24.942C39.72 25.194 39.6967 25.4507 39.678 25.712L42.45 19.72H43.892V27H42.632V24.088C42.632 23.8267 42.6367 23.57 42.646 23.318C42.6647 23.0567 42.6833 22.8 42.702 22.548C42.7207 22.2867 42.744 22.03 42.772 21.778C42.8 21.526 42.8233 21.2693 42.842 21.008L40.07 27H38.628ZM45.068 30.01V19.72H46.328V20.952C46.4027 20.756 46.5007 20.574 46.622 20.406C46.7433 20.2287 46.8833 20.0793 47.042 19.958C47.21 19.8367 47.3967 19.748 47.602 19.692C47.8073 19.636 48.0127 19.608 48.218 19.608C48.4513 19.608 48.68 19.6407 48.904 19.706C49.128 19.7713 49.3287 19.8787 49.506 20.028C49.6927 20.168 49.8467 20.336 49.968 20.532C50.0893 20.728 50.1827 20.938 50.248 21.162C50.3227 21.3767 50.374 21.6007 50.402 21.834C50.43 22.058 50.444 22.2867 50.444 22.52V24.2C50.444 24.4333 50.43 24.6667 50.402 24.9C50.374 25.124 50.3227 25.348 50.248 25.572C50.1827 25.7867 50.0893 25.992 49.968 26.188C49.8467 26.384 49.6927 26.5567 49.506 26.706C49.3287 26.846 49.128 26.9487 48.904 27.014C48.68 27.0793 48.4513 27.112 48.218 27.112C48.0127 27.112 47.8073 27.084 47.602 27.028C47.3967 26.972 47.21 26.8833 47.042 26.762C46.8833 26.6407 46.7433 26.496 46.622 26.328C46.5007 26.1507 46.4027 25.964 46.328 25.768V30.01H45.068ZM47.714 25.992C47.9287 25.992 48.1387 25.9453 48.344 25.852C48.5493 25.7587 48.7173 25.6233 48.848 25.446C48.9787 25.2687 49.0673 25.0727 49.114 24.858C49.1607 24.634 49.184 24.4147 49.184 24.2V22.52C49.184 22.3053 49.1607 22.0907 49.114 21.876C49.0673 21.652 48.9787 21.4513 48.848 21.274C48.7173 21.0967 48.5493 20.9613 48.344 20.868C48.1387 20.7747 47.9287 20.728 47.714 20.728C47.574 20.728 47.434 20.7467 47.294 20.784C47.154 20.8213 47.0233 20.8867 46.902 20.98C46.79 21.064 46.6967 21.1667 46.622 21.288C46.5473 21.4093 46.4867 21.54 46.44 21.68C46.3933 21.8107 46.3607 21.9507 46.342 22.1C46.3327 22.24 46.328 22.38 46.328 22.52V24.2C46.328 24.34 46.3327 24.4847 46.342 24.634C46.3607 24.774 46.3933 24.914 46.44 25.054C46.4867 25.1847 46.5473 25.3107 46.622 25.432C46.6967 25.5533 46.79 25.6607 46.902 25.754C47.0233 25.838 47.154 25.8987 47.294 25.936C47.434 25.9733 47.574 25.992 47.714 25.992ZM54.14 27.112C53.888 27.112 53.636 27.0887 53.384 27.042C53.132 26.9953 52.894 26.9113 52.67 26.79C52.4553 26.6593 52.2593 26.5007 52.082 26.314C51.914 26.118 51.7787 25.908 51.676 25.684C51.5733 25.4507 51.4987 25.208 51.452 24.956C51.4147 24.704 51.396 24.452 51.396 24.2V22.52C51.396 22.268 51.4147 22.016 51.452 21.764C51.4987 21.512 51.5733 21.274 51.676 21.05C51.7787 20.8167 51.914 20.6067 52.082 20.42C52.2593 20.224 52.46 20.0653 52.684 19.944C52.908 19.8133 53.1413 19.72 53.384 19.664C53.636 19.5987 53.888 19.566 54.14 19.566C54.392 19.566 54.6393 19.5987 54.882 19.664C55.134 19.72 55.372 19.8133 55.596 19.944C55.82 20.0653 56.016 20.224 56.184 20.42C56.3613 20.6067 56.5013 20.8167 56.604 21.05C56.7067 21.274 56.7767 21.512 56.814 21.764C56.8607 22.016 56.884 22.268 56.884 22.52V24.2C56.884 24.452 56.8607 24.704 56.814 24.956C56.7767 25.208 56.7067 25.4507 56.604 25.684C56.5013 25.908 56.3613 26.118 56.184 26.314C56.016 26.5007 55.82 26.6593 55.596 26.79C55.3813 26.9113 55.148 26.9953 54.896 27.042C54.644 27.0887 54.392 27.112 54.14 27.112ZM54.14 25.992C54.364 25.992 54.5787 25.95 54.784 25.866C54.9893 25.7727 55.1573 25.6373 55.288 25.46C55.4187 25.2733 55.5073 25.0727 55.554 24.858C55.6007 24.6433 55.624 24.424 55.624 24.2V22.52C55.624 22.296 55.6007 22.0767 55.554 21.862C55.5073 21.638 55.414 21.4373 55.274 21.26C55.1433 21.0827 54.9707 20.952 54.756 20.868C54.5507 20.7747 54.336 20.728 54.112 20.728C53.8973 20.728 53.6873 20.7747 53.482 20.868C53.2767 20.9613 53.1087 21.0967 52.978 21.274C52.8567 21.4513 52.7727 21.652 52.726 21.876C52.6793 22.0907 52.656 22.3053 52.656 22.52V24.2C52.656 24.424 52.6793 24.6433 52.726 24.858C52.7727 25.0727 52.8613 25.2733 52.992 25.46C53.1227 25.6373 53.2907 25.7727 53.496 25.866C53.7013 25.95 53.916 25.992 54.14 25.992ZM57.948 27V19.72H60.692C60.888 19.72 61.084 19.734 61.28 19.762C61.476 19.79 61.6627 19.8413 61.84 19.916C62.0267 19.9813 62.1993 20.0747 62.358 20.196C62.5167 20.308 62.6473 20.448 62.75 20.616C62.862 20.7747 62.9413 20.952 62.988 21.148C63.044 21.3347 63.072 21.526 63.072 21.722C63.072 21.8713 63.0533 22.0207 63.016 22.17C62.988 22.3193 62.9367 22.4593 62.862 22.59C62.7873 22.7207 62.694 22.8373 62.582 22.94C62.47 23.0427 62.3487 23.1267 62.218 23.192C62.3953 23.2573 62.5587 23.346 62.708 23.458C62.8667 23.5607 63.002 23.6867 63.114 23.836C63.226 23.976 63.3053 24.1393 63.352 24.326C63.408 24.5033 63.436 24.6853 63.436 24.872C63.436 25.0867 63.4033 25.3013 63.338 25.516C63.282 25.7307 63.184 25.9267 63.044 26.104C62.9133 26.272 62.7547 26.4167 62.568 26.538C62.3813 26.6593 62.1853 26.7573 61.98 26.832C61.7747 26.8973 61.56 26.944 61.336 26.972C61.1213 26.9907 60.9067 27 60.692 27H57.948ZM60.692 22.674C60.832 22.674 60.9673 22.66 61.098 22.632C61.238 22.604 61.364 22.5527 61.476 22.478C61.588 22.394 61.672 22.2867 61.728 22.156C61.784 22.0253 61.812 21.89 61.812 21.75C61.812 21.61 61.7793 21.4793 61.714 21.358C61.658 21.2273 61.574 21.1247 61.462 21.05C61.3593 20.966 61.238 20.91 61.098 20.882C60.9673 20.854 60.832 20.84 60.692 20.84H59.208V22.674H60.692ZM60.692 25.88C60.804 25.88 60.916 25.8753 61.028 25.866C61.14 25.8567 61.252 25.838 61.364 25.81C61.476 25.7727 61.5787 25.7307 61.672 25.684C61.7747 25.628 61.8633 25.558 61.938 25.474C62.022 25.39 62.0827 25.292 62.12 25.18C62.1573 25.068 62.176 24.956 62.176 24.844C62.176 24.676 62.1293 24.5173 62.036 24.368C61.952 24.2093 61.8353 24.088 61.686 24.004C61.5367 23.92 61.3733 23.864 61.196 23.836C61.028 23.808 60.86 23.794 60.692 23.794H59.208V25.88H60.692ZM66.502 27.112C66.2687 27.112 66.04 27.0793 65.816 27.014C65.592 26.9487 65.3867 26.846 65.2 26.706C65.0227 26.5567 64.8733 26.384 64.752 26.188C64.6307 25.992 64.5327 25.7867 64.458 25.572C64.3927 25.348 64.346 25.124 64.318 24.9C64.29 24.6667 64.276 24.4333 64.276 24.2V22.52C64.276 22.268 64.2947 22.016 64.332 21.764C64.3787 21.512 64.4533 21.274 64.556 21.05C64.6587 20.8167 64.794 20.6067 64.962 20.42C65.1393 20.224 65.3353 20.0653 65.55 19.944C65.774 19.8133 66.012 19.7247 66.264 19.678C66.516 19.6313 66.768 19.608 67.02 19.608C67.4867 19.608 67.944 19.6687 68.392 19.79C68.8493 19.902 69.2693 20.0933 69.652 20.364V25.614C69.652 25.67 69.6567 25.7213 69.666 25.768C69.6847 25.8147 69.7127 25.8567 69.75 25.894C69.7873 25.9313 69.8293 25.9593 69.876 25.978C69.9227 25.9873 69.974 25.992 70.03 25.992H70.254V27.112H70.03C69.834 27.112 69.638 27.0887 69.442 27.042C69.246 26.9953 69.0687 26.9113 68.91 26.79C68.7513 26.6687 68.6253 26.5193 68.532 26.342C68.448 26.1553 68.4013 25.964 68.392 25.768C68.3173 25.964 68.2193 26.1507 68.098 26.328C67.986 26.496 67.846 26.6407 67.678 26.762C67.51 26.8833 67.3233 26.972 67.118 27.028C66.9127 27.084 66.7073 27.112 66.502 27.112ZM67.006 25.992C67.146 25.992 67.286 25.9733 67.426 25.936C67.566 25.8987 67.692 25.838 67.804 25.754C67.9253 25.6607 68.0233 25.5533 68.098 25.432C68.1727 25.3107 68.2333 25.1847 68.28 25.054C68.3267 24.914 68.3547 24.774 68.364 24.634C68.3827 24.4847 68.392 24.34 68.392 24.2V20.966C68.1773 20.8727 67.9533 20.812 67.72 20.784C67.4867 20.7467 67.2533 20.728 67.02 20.728C66.796 20.728 66.5813 20.7747 66.376 20.868C66.1707 20.952 66.0027 21.0827 65.872 21.26C65.7413 21.4373 65.6527 21.638 65.606 21.862C65.5593 22.0767 65.536 22.296 65.536 22.52V24.2C65.536 24.4147 65.5593 24.634 65.606 24.858C65.6527 25.0727 65.7413 25.2687 65.872 25.446C66.0027 25.6233 66.1707 25.7587 66.376 25.852C66.5813 25.9453 66.7913 25.992 67.006 25.992ZM70.828 27V19.72H72.088V22.688H74.832V19.72H76.092V27H74.832V23.808H72.088V27H70.828ZM79.9 27.112C79.648 27.112 79.396 27.0887 79.144 27.042C78.892 26.9953 78.654 26.9113 78.43 26.79C78.2153 26.6593 78.0193 26.5007 77.842 26.314C77.674 26.118 77.5387 25.908 77.436 25.684C77.3333 25.4507 77.2587 25.208 77.212 24.956C77.1747 24.704 77.156 24.452 77.156 24.2V22.52C77.156 22.268 77.1747 22.016 77.212 21.764C77.2587 21.512 77.3333 21.274 77.436 21.05C77.5387 20.8167 77.674 20.6067 77.842 20.42C78.0193 20.224 78.22 20.0653 78.444 19.944C78.668 19.8133 78.9013 19.72 79.144 19.664C79.396 19.5987 79.648 19.566 79.9 19.566C80.152 19.566 80.3993 19.5987 80.642 19.664C80.894 19.72 81.132 19.8133 81.356 19.944C81.58 20.0653 81.776 20.224 81.944 20.42C82.1213 20.6067 82.2613 20.8167 82.364 21.05C82.4667 21.274 82.5367 21.512 82.574 21.764C82.6207 22.016 82.644 22.268 82.644 22.52V24.2C82.644 24.452 82.6207 24.704 82.574 24.956C82.5367 25.208 82.4667 25.4507 82.364 25.684C82.2613 25.908 82.1213 26.118 81.944 26.314C81.776 26.5007 81.58 26.6593 81.356 26.79C81.1413 26.9113 80.908 26.9953 80.656 27.042C80.404 27.0887 80.152 27.112 79.9 27.112ZM79.9 25.992C80.124 25.992 80.3387 25.95 80.544 25.866C80.7493 25.7727 80.9173 25.6373 81.048 25.46C81.1787 25.2733 81.2673 25.0727 81.314 24.858C81.3607 24.6433 81.384 24.424 81.384 24.2V22.52C81.384 22.296 81.3607 22.0767 81.314 21.862C81.2673 21.638 81.174 21.4373 81.034 21.26C80.9033 21.0827 80.7307 20.952 80.516 20.868C80.3107 20.7747 80.096 20.728 79.872 20.728C79.6573 20.728 79.4473 20.7747 79.242 20.868C79.0367 20.9613 78.8687 21.0967 78.738 21.274C78.6167 21.4513 78.5327 21.652 78.486 21.876C78.4393 22.0907 78.416 22.3053 78.416 22.52V24.2C78.416 24.424 78.4393 24.6433 78.486 24.858C78.5327 25.0727 78.6213 25.2733 78.752 25.46C78.8827 25.6373 79.0507 25.7727 79.256 25.866C79.4613 25.95 79.676 25.992 79.9 25.992ZM85.71 23.36V16.71H86.97V23.36H85.71ZM86.34 27.112C86.1907 27.112 86.046 27.0887 85.906 27.042C85.766 27.0047 85.6447 26.9347 85.542 26.832C85.4393 26.7293 85.3647 26.608 85.318 26.468C85.2807 26.3187 85.262 26.174 85.262 26.034C85.262 25.8847 85.2807 25.74 85.318 25.6C85.3647 25.4507 85.4393 25.3247 85.542 25.222C85.6447 25.1193 85.766 25.0493 85.906 25.012C86.046 24.9653 86.1907 24.942 86.34 24.942C86.4893 24.942 86.634 24.9653 86.774 25.012C86.914 25.0493 87.0353 25.1193 87.138 25.222C87.2407 25.3247 87.3107 25.4507 87.348 25.6C87.3947 25.74 87.418 25.8847 87.418 26.034C87.418 26.174 87.3947 26.3187 87.348 26.468C87.3107 26.608 87.2407 26.7293 87.138 26.832C87.0353 26.9347 86.914 27.0047 86.774 27.042C86.634 27.0887 86.4893 27.112 86.34 27.112Z" fill="#00245A"/>
<path d="M51 0L55.3301 7.5H46.6699L51 0Z" fill="white"/>
</svg>
