<svg width="192" height="38" viewBox="0 0 192 38" fill="none" xmlns="http://www.w3.org/2000/svg">
<path d="M50.016 32V13.28H54.948V15.944C55.116 15.536 55.332 15.152 55.596 14.792C55.86 14.408 56.172 14.084 56.532 13.82C56.892 13.532 57.288 13.328 57.72 13.208C58.176 13.064 58.632 12.992 59.088 12.992C59.64 12.992 60.18 13.1 60.708 13.316C61.26 13.508 61.728 13.808 62.112 14.216C62.496 14.624 62.808 15.08 63.048 15.584C63.288 16.088 63.48 16.616 63.624 17.168C63.768 17.696 63.864 18.248 63.912 18.824C63.96 19.376 63.984 19.928 63.984 20.48V32H59.052V20.48C59.052 20.12 59.028 19.76 58.98 19.4C58.932 19.016 58.836 18.656 58.692 18.32C58.548 17.984 58.32 17.696 58.008 17.456C57.696 17.216 57.36 17.096 57 17.096C56.64 17.096 56.304 17.216 55.992 17.456C55.68 17.696 55.452 17.984 55.308 18.32C55.164 18.656 55.068 19.016 55.02 19.4C54.972 19.76 54.948 20.12 54.948 20.48V32H50.016ZM75.072 32.288C74.424 32.288 73.764 32.228 73.092 32.108C72.444 31.988 71.82 31.784 71.22 31.496C70.644 31.184 70.116 30.788 69.636 30.308C69.18 29.804 68.796 29.264 68.484 28.688C68.196 28.088 67.992 27.464 67.872 26.816C67.776 26.144 67.728 25.472 67.728 24.8V20.48C67.728 19.832 67.776 19.184 67.872 18.536C67.992 17.864 68.196 17.228 68.484 16.628C68.772 16.028 69.144 15.488 69.6 15.008C70.056 14.528 70.572 14.132 71.148 13.82C71.748 13.508 72.372 13.292 73.02 13.172C73.692 13.052 74.352 12.992 75 12.992C75.648 12.992 76.296 13.052 76.944 13.172C77.616 13.292 78.24 13.508 78.816 13.82C79.416 14.132 79.944 14.528 80.4 15.008C80.856 15.488 81.228 16.028 81.516 16.628C81.804 17.228 81.996 17.864 82.092 18.536C82.212 19.184 82.272 19.832 82.272 20.48V24.584H72.372V24.8C72.372 25.232 72.408 25.664 72.48 26.096C72.552 26.504 72.696 26.888 72.912 27.248C73.152 27.608 73.464 27.896 73.848 28.112C74.256 28.328 74.664 28.436 75.072 28.436C75.384 28.436 75.684 28.4 75.972 28.328C76.26 28.256 76.524 28.136 76.764 27.968C77.004 27.8 77.184 27.584 77.304 27.32C77.448 27.032 77.532 26.744 77.556 26.456H82.2C82.176 27.032 82.068 27.596 81.876 28.148C81.684 28.676 81.42 29.18 81.084 29.66C80.772 30.116 80.388 30.524 79.932 30.884C79.476 31.244 78.984 31.532 78.456 31.748C77.928 31.94 77.376 32.072 76.8 32.144C76.224 32.24 75.648 32.288 75.072 32.288ZM72.372 20.696H77.628V20.48C77.628 20.048 77.592 19.628 77.52 19.22C77.448 18.788 77.304 18.392 77.088 18.032C76.872 17.672 76.572 17.384 76.188 17.168C75.828 16.952 75.432 16.844 75 16.844C74.568 16.844 74.16 16.952 73.776 17.168C73.416 17.384 73.128 17.672 72.912 18.032C72.696 18.392 72.552 18.788 72.48 19.22C72.408 19.628 72.372 20.048 72.372 20.48V20.696ZM92.928 32.288C92.352 32.288 91.776 32.24 91.2 32.144C90.648 32.072 90.108 31.94 89.58 31.748C89.052 31.532 88.548 31.256 88.068 30.92C87.612 30.56 87.228 30.14 86.916 29.66C86.604 29.18 86.364 28.664 86.196 28.112C86.028 27.56 85.944 26.996 85.944 26.42H90.588C90.588 26.708 90.648 26.996 90.768 27.284C90.888 27.548 91.056 27.776 91.272 27.968C91.512 28.136 91.776 28.256 92.064 28.328C92.352 28.4 92.64 28.436 92.928 28.436C93.216 28.436 93.504 28.412 93.792 28.364C94.08 28.292 94.344 28.184 94.584 28.04C94.824 27.872 95.016 27.656 95.16 27.392C95.304 27.128 95.376 26.852 95.376 26.564C95.376 26.252 95.268 25.976 95.052 25.736C94.86 25.472 94.62 25.28 94.332 25.16C94.044 25.016 93.744 24.908 93.432 24.836C93.144 24.764 92.844 24.692 92.532 24.62C92.244 24.548 91.944 24.476 91.632 24.404C91.344 24.308 91.044 24.212 90.732 24.116C90.444 23.996 90.156 23.876 89.868 23.756C89.58 23.636 89.304 23.504 89.04 23.36C88.776 23.192 88.524 23.012 88.284 22.82C88.044 22.604 87.816 22.388 87.6 22.172C87.384 21.932 87.192 21.68 87.024 21.416C86.88 21.152 86.748 20.876 86.628 20.588C86.508 20.3 86.424 20 86.376 19.688C86.328 19.376 86.304 19.064 86.304 18.752C86.304 18.2 86.376 17.66 86.52 17.132C86.688 16.58 86.916 16.076 87.204 15.62C87.516 15.14 87.888 14.732 88.32 14.396C88.776 14.036 89.256 13.76 89.76 13.568C90.288 13.352 90.828 13.208 91.38 13.136C91.956 13.04 92.52 12.992 93.072 12.992C93.624 12.992 94.176 13.04 94.728 13.136C95.28 13.208 95.808 13.352 96.312 13.568C96.84 13.76 97.32 14.036 97.752 14.396C98.184 14.756 98.544 15.176 98.832 15.656C99.144 16.112 99.372 16.616 99.516 17.168C99.684 17.696 99.768 18.236 99.768 18.788H95.124C95.124 18.524 95.076 18.272 94.98 18.032C94.884 17.768 94.728 17.552 94.512 17.384C94.32 17.192 94.092 17.06 93.828 16.988C93.588 16.892 93.336 16.844 93.072 16.844C92.808 16.844 92.544 16.88 92.28 16.952C92.016 17.024 91.776 17.144 91.56 17.312C91.368 17.48 91.212 17.696 91.092 17.96C90.972 18.2 90.912 18.452 90.912 18.716C90.912 19.028 91.008 19.316 91.2 19.58C91.416 19.82 91.668 20 91.956 20.12C92.244 20.24 92.532 20.348 92.82 20.444C93.132 20.516 93.432 20.588 93.72 20.66C94.032 20.732 94.332 20.816 94.62 20.912C94.932 20.984 95.232 21.068 95.52 21.164C95.808 21.26 96.096 21.38 96.384 21.524C96.672 21.644 96.948 21.788 97.212 21.956C97.5 22.1 97.764 22.268 98.004 22.46C98.244 22.652 98.46 22.868 98.652 23.108C98.868 23.348 99.06 23.6 99.228 23.864C99.396 24.128 99.54 24.404 99.66 24.692C99.78 24.98 99.864 25.28 99.912 25.592C99.96 25.88 99.984 26.18 99.984 26.492C99.984 27.068 99.9 27.632 99.732 28.184C99.564 28.736 99.312 29.252 98.976 29.732C98.664 30.188 98.268 30.596 97.788 30.956C97.332 31.292 96.828 31.568 96.276 31.784C95.748 31.976 95.196 32.108 94.62 32.18C94.068 32.252 93.504 32.288 92.928 32.288ZM111 32.288C110.352 32.288 109.692 32.228 109.02 32.108C108.372 31.988 107.748 31.772 107.148 31.46C106.572 31.148 106.056 30.752 105.6 30.272C105.144 29.792 104.772 29.252 104.484 28.652C104.196 28.052 103.992 27.428 103.872 26.78C103.776 26.108 103.728 25.448 103.728 24.8V20.48C103.728 19.808 103.776 19.148 103.872 18.5C103.992 17.852 104.196 17.228 104.484 16.628C104.772 16.028 105.144 15.488 105.6 15.008C106.056 14.528 106.572 14.132 107.148 13.82C107.748 13.508 108.372 13.28 109.02 13.136C109.668 12.968 110.328 12.884 111 12.884C111.672 12.884 112.332 12.968 112.98 13.136C113.628 13.28 114.24 13.508 114.816 13.82C115.416 14.132 115.944 14.528 116.4 15.008C116.856 15.488 117.228 16.028 117.516 16.628C117.804 17.228 117.996 17.852 118.092 18.5C118.212 19.148 118.272 19.808 118.272 20.48V24.8C118.272 25.448 118.212 26.108 118.092 26.78C117.996 27.428 117.804 28.052 117.516 28.652C117.228 29.252 116.856 29.792 116.4 30.272C115.944 30.752 115.416 31.148 114.816 31.46C114.24 31.772 113.616 31.988 112.944 32.108C112.296 32.228 111.648 32.288 111 32.288ZM111 28.184C111.384 28.184 111.744 28.088 112.08 27.896C112.44 27.68 112.704 27.404 112.872 27.068C113.064 26.708 113.184 26.336 113.232 25.952C113.304 25.568 113.34 25.184 113.34 24.8V20.48C113.34 20.096 113.304 19.712 113.232 19.328C113.184 18.92 113.064 18.548 112.872 18.212C112.68 17.876 112.404 17.612 112.044 17.42C111.708 17.204 111.348 17.096 110.964 17.096C110.58 17.096 110.22 17.204 109.884 17.42C109.548 17.636 109.284 17.912 109.092 18.248C108.924 18.584 108.804 18.944 108.732 19.328C108.684 19.712 108.66 20.096 108.66 20.48V24.8C108.66 25.184 108.684 25.568 108.732 25.952C108.804 26.336 108.924 26.708 109.092 27.068C109.284 27.404 109.548 27.68 109.884 27.896C110.244 28.088 110.616 28.184 111 28.184ZM123.816 32V13.28H128.748V17.312C128.892 16.928 129.06 16.556 129.252 16.196C129.468 15.836 129.708 15.5 129.972 15.188C130.26 14.876 130.572 14.6 130.908 14.36C131.244 14.096 131.604 13.88 131.988 13.712C132.372 13.544 132.768 13.436 133.176 13.388C133.584 13.316 134.004 13.28 134.436 13.28H136.884V20.48H133.428V17.42C132.804 17.468 132.192 17.6 131.592 17.816C131.016 18.032 130.5 18.356 130.044 18.788C129.612 19.196 129.288 19.7 129.072 20.3C128.856 20.876 128.748 21.464 128.748 22.064V32H123.816ZM148.8 32.288C148.224 32.288 147.636 32.216 147.036 32.072C146.46 31.928 145.932 31.688 145.452 31.352C144.972 30.992 144.564 30.572 144.228 30.092C143.892 29.588 143.616 29.06 143.4 28.508C143.208 27.932 143.076 27.356 143.004 26.78C142.956 26.18 142.932 25.58 142.932 24.98V17.384H140.124V13.28H142.932V5.54H147.828V13.28H153.516V17.384H147.828V24.98C147.828 25.172 147.828 25.376 147.828 25.592C147.852 25.784 147.864 25.976 147.864 26.168C147.888 26.36 147.912 26.564 147.936 26.78C147.984 26.972 148.032 27.164 148.08 27.356C148.152 27.548 148.236 27.74 148.332 27.932C148.452 28.1 148.608 28.184 148.8 28.184C148.992 28.184 149.136 28.112 149.232 27.968C149.352 27.824 149.436 27.668 149.484 27.5C149.556 27.332 149.604 27.164 149.628 26.996C149.676 26.828 149.7 26.66 149.7 26.492C149.724 26.324 149.736 26.156 149.736 25.988C149.76 25.796 149.772 25.616 149.772 25.448C149.772 25.424 149.772 25.4 149.772 25.376C149.772 25.352 149.772 25.328 149.772 25.304H154.704C154.704 25.376 154.704 25.448 154.704 25.52C154.704 25.568 154.704 25.628 154.704 25.7C154.704 26.252 154.656 26.804 154.56 27.356C154.464 27.908 154.308 28.436 154.092 28.94C153.876 29.444 153.588 29.924 153.228 30.38C152.892 30.812 152.484 31.184 152.004 31.496C151.524 31.784 151.008 31.988 150.456 32.108C149.928 32.228 149.376 32.288 148.8 32.288ZM165.072 32.288C164.424 32.288 163.764 32.228 163.092 32.108C162.444 31.988 161.82 31.784 161.22 31.496C160.644 31.184 160.116 30.788 159.636 30.308C159.18 29.804 158.796 29.264 158.484 28.688C158.196 28.088 157.992 27.464 157.872 26.816C157.776 26.144 157.728 25.472 157.728 24.8V20.48C157.728 19.832 157.776 19.184 157.872 18.536C157.992 17.864 158.196 17.228 158.484 16.628C158.772 16.028 159.144 15.488 159.6 15.008C160.056 14.528 160.572 14.132 161.148 13.82C161.748 13.508 162.372 13.292 163.02 13.172C163.692 13.052 164.352 12.992 165 12.992C165.648 12.992 166.296 13.052 166.944 13.172C167.616 13.292 168.24 13.508 168.816 13.82C169.416 14.132 169.944 14.528 170.4 15.008C170.856 15.488 171.228 16.028 171.516 16.628C171.804 17.228 171.996 17.864 172.092 18.536C172.212 19.184 172.272 19.832 172.272 20.48V24.584H162.372V24.8C162.372 25.232 162.408 25.664 162.48 26.096C162.552 26.504 162.696 26.888 162.912 27.248C163.152 27.608 163.464 27.896 163.848 28.112C164.256 28.328 164.664 28.436 165.072 28.436C165.384 28.436 165.684 28.4 165.972 28.328C166.26 28.256 166.524 28.136 166.764 27.968C167.004 27.8 167.184 27.584 167.304 27.32C167.448 27.032 167.532 26.744 167.556 26.456H172.2C172.176 27.032 172.068 27.596 171.876 28.148C171.684 28.676 171.42 29.18 171.084 29.66C170.772 30.116 170.388 30.524 169.932 30.884C169.476 31.244 168.984 31.532 168.456 31.748C167.928 31.94 167.376 32.072 166.8 32.144C166.224 32.24 165.648 32.288 165.072 32.288ZM162.372 20.696H167.628V20.48C167.628 20.048 167.592 19.628 167.52 19.22C167.448 18.788 167.304 18.392 167.088 18.032C166.872 17.672 166.572 17.384 166.188 17.168C165.828 16.952 165.432 16.844 165 16.844C164.568 16.844 164.16 16.952 163.776 17.168C163.416 17.384 163.128 17.672 162.912 18.032C162.696 18.392 162.552 18.788 162.48 19.22C162.408 19.628 162.372 20.048 162.372 20.48V20.696ZM177.816 32V13.28H182.748V17.312C182.892 16.928 183.06 16.556 183.252 16.196C183.468 15.836 183.708 15.5 183.972 15.188C184.26 14.876 184.572 14.6 184.908 14.36C185.244 14.096 185.604 13.88 185.988 13.712C186.372 13.544 186.768 13.436 187.176 13.388C187.584 13.316 188.004 13.28 188.436 13.28H190.884V20.48H187.428V17.42C186.804 17.468 186.192 17.6 185.592 17.816C185.016 18.032 184.5 18.356 184.044 18.788C183.612 19.196 183.288 19.7 183.072 20.3C182.856 20.876 182.748 21.464 182.748 22.064V32H177.816Z" fill="white"/>
<path d="M11.0833 9.5H9.5V4.75001C9.5 4.33008 9.33319 3.92735 9.03626 3.63042C8.73932 3.33349 8.3366 3.16667 7.91667 3.16667C7.49675 3.16667 7.09402 3.33349 6.79709 3.63042C6.50015 3.92735 6.33334 4.33008 6.33334 4.75001V9.5H4.75001C4.33008 9.5 3.92735 9.66682 3.63042 9.96375C3.33349 10.2607 3.16667 10.6634 3.16667 11.0833C3.16667 11.5033 3.33349 11.906 3.63042 12.2029C3.92735 12.4999 4.33008 12.6667 4.75001 12.6667H11.0833C11.5033 12.6667 11.906 12.4999 12.2029 12.2029C12.4999 11.906 12.6667 11.5033 12.6667 11.0833C12.6667 10.6634 12.4999 10.2607 12.2029 9.96375C11.906 9.66682 11.5033 9.5 11.0833 9.5ZM7.91667 15.8333C7.49675 15.8333 7.09402 16.0002 6.79709 16.2971C6.50015 16.594 6.33334 16.9967 6.33334 17.4167V33.25C6.33334 33.6699 6.50015 34.0727 6.79709 34.3696C7.09402 34.6665 7.49675 34.8333 7.91667 34.8333C8.3366 34.8333 8.73932 34.6665 9.03626 34.3696C9.33319 34.0727 9.5 33.6699 9.5 33.25V17.4167C9.5 16.9967 9.33319 16.594 9.03626 16.2971C8.73932 16.0002 8.3366 15.8333 7.91667 15.8333ZM19 28.5C18.5801 28.5 18.1774 28.6668 17.8804 28.9638C17.5835 29.2607 17.4167 29.6634 17.4167 30.0833V33.25C17.4167 33.6699 17.5835 34.0727 17.8804 34.3696C18.1774 34.6665 18.5801 34.8333 19 34.8333C19.4199 34.8333 19.8227 34.6665 20.1196 34.3696C20.4165 34.0727 20.5833 33.6699 20.5833 33.25V30.0833C20.5833 29.6634 20.4165 29.2607 20.1196 28.9638C19.8227 28.6668 19.4199 28.5 19 28.5ZM33.25 15.8333H31.6667V4.75001C31.6667 4.33008 31.4999 3.92735 31.2029 3.63042C30.906 3.33349 30.5033 3.16667 30.0833 3.16667C29.6634 3.16667 29.2607 3.33349 28.9638 3.63042C28.6668 3.92735 28.5 4.33008 28.5 4.75001V15.8333H26.9167C26.4967 15.8333 26.094 16.0002 25.7971 16.2971C25.5002 16.594 25.3333 16.9967 25.3333 17.4167C25.3333 17.8366 25.5002 18.2393 25.7971 18.5363C26.094 18.8332 26.4967 19 26.9167 19H33.25C33.6699 19 34.0727 18.8332 34.3696 18.5363C34.6665 18.2393 34.8333 17.8366 34.8333 17.4167C34.8333 16.9967 34.6665 16.594 34.3696 16.2971C34.0727 16.0002 33.6699 15.8333 33.25 15.8333ZM30.0833 22.1667C29.6634 22.1667 29.2607 22.3335 28.9638 22.6304C28.6668 22.9274 28.5 23.3301 28.5 23.75V33.25C28.5 33.6699 28.6668 34.0727 28.9638 34.3696C29.2607 34.6665 29.6634 34.8333 30.0833 34.8333C30.5033 34.8333 30.906 34.6665 31.2029 34.3696C31.4999 34.0727 31.6667 33.6699 31.6667 33.25V23.75C31.6667 23.3301 31.4999 22.9274 31.2029 22.6304C30.906 22.3335 30.5033 22.1667 30.0833 22.1667ZM22.1667 22.1667H20.5833V4.75001C20.5833 4.33008 20.4165 3.92735 20.1196 3.63042C19.8227 3.33349 19.4199 3.16667 19 3.16667C18.5801 3.16667 18.1774 3.33349 17.8804 3.63042C17.5835 3.92735 17.4167 4.33008 17.4167 4.75001V22.1667H15.8333C15.4134 22.1667 15.0107 22.3335 14.7138 22.6304C14.4168 22.9274 14.25 23.3301 14.25 23.75C14.25 24.1699 14.4168 24.5727 14.7138 24.8696C15.0107 25.1665 15.4134 25.3333 15.8333 25.3333H22.1667C22.5866 25.3333 22.9893 25.1665 23.2863 24.8696C23.5832 24.5727 23.75 24.1699 23.75 23.75C23.75 23.3301 23.5832 22.9274 23.2863 22.6304C22.9893 22.3335 22.5866 22.1667 22.1667 22.1667Z" fill="white"/>
</svg>
